<svg width="108" height="65" viewBox="0 0 108 65" fill="none" xmlns="http://www.w3.org/2000/svg">
<path d="M81.318 8.06667C81.318 8.06667 72.599 7.91667 48.707 8.06667C35.807 8.07267 26.681 8.06667 26.681 8.06667C3.581 8.06667 0 11.4967 0 33.6017V34.5637C0 60.5557 3.584 63.9097 30.664 63.9097L52.1 64.4207L77.336 63.9097C104.416 63.9097 108 60.5557 108 34.5637V33.6017C108 11.4967 104.416 8.06667 81.318 8.06667Z" fill="#D05A24"/>
<path d="M81.318 0.0666667C81.318 0.0666667 72.599 -0.0833333 48.707 0.0666667C35.807 0.0726667 26.681 0.0666667 26.681 0.0666667C3.581 0.0666667 0 3.49666 0 25.6017V26.5637C0 52.5557 3.584 55.9097 30.664 55.9097L52.1 56.4207L77.336 55.9097C104.416 55.9097 108 52.5557 108 26.5637V25.6017C108 3.49666 104.416 0.0666667 81.318 0.0666667Z" fill="#F86509"/>
<path d="M33.625 22.175C33.625 21.4583 33.8333 20.8917 34.25 20.475C34.6667 20.0583 35.2333 19.85 35.95 19.85H44.2C44.3167 20.0333 44.4167 20.275 44.5 20.575C44.6 20.875 44.65 21.1917 44.65 21.525C44.65 22.1583 44.5083 22.6083 44.225 22.875C43.9583 23.1417 43.6 23.275 43.15 23.275H37.875V25.6H43.5C43.6167 25.7833 43.7167 26.025 43.8 26.325C43.9 26.6083 43.95 26.9167 43.95 27.25C43.95 27.8833 43.8167 28.3333 43.55 28.6C43.2833 28.8667 42.925 29 42.475 29H37.875V31.625H44.3C44.4167 31.8083 44.5167 32.05 44.6 32.35C44.7 32.65 44.75 32.9667 44.75 33.3C44.75 33.9333 44.6083 34.3917 44.325 34.675C44.0583 34.9417 43.7 35.075 43.25 35.075H35.95C35.2333 35.075 34.6667 34.8667 34.25 34.45C33.8333 34.0333 33.625 33.4667 33.625 32.75V22.175ZM46.4189 24.825C46.5523 24.1917 46.8106 23.675 47.1939 23.275C47.5939 22.875 48.0856 22.675 48.6689 22.675C49.2189 22.675 49.6439 22.8083 49.9439 23.075C50.2439 23.3417 50.5773 23.7167 50.9439 24.2L52.5439 26.3L55.2189 22.675C56.1356 22.675 56.8606 22.8417 57.3939 23.175C57.9273 23.4917 58.1939 23.925 58.1939 24.475C58.1939 24.6917 58.1606 24.8917 58.0939 25.075C58.0439 25.2417 57.9606 25.4167 57.8439 25.6C57.7273 25.7833 57.5773 25.9917 57.3939 26.225C57.2106 26.4583 56.9939 26.7333 56.7439 27.05L55.0939 28.9L58.3689 33.225C58.2856 33.8583 58.0356 34.3583 57.6189 34.725C57.2023 35.0917 56.7023 35.275 56.1189 35.275C55.4856 35.2583 54.9773 35.075 54.5939 34.725C54.2273 34.375 53.8689 33.95 53.5189 33.45L52.1689 31.525L49.6189 35.2C49.5356 35.2 49.4439 35.2 49.3439 35.2C49.2439 35.2167 49.1606 35.225 49.0939 35.225C48.2439 35.225 47.5939 35.05 47.1439 34.7C46.7106 34.35 46.4939 33.9167 46.4939 33.4C46.4939 33 46.5856 32.65 46.7689 32.35C46.9689 32.0333 47.3023 31.6083 47.7689 31.075L49.7689 28.75L46.4189 24.825ZM60.0799 19.475C60.0799 18.8417 60.2882 18.3083 60.7049 17.875C61.1382 17.4417 61.7049 17.225 62.4049 17.225C63.1049 17.225 63.6632 17.4417 64.0799 17.875C64.5132 18.3083 64.7299 18.8417 64.7299 19.475C64.7299 20.1083 64.5132 20.6417 64.0799 21.075C63.6632 21.5083 63.1049 21.725 62.4049 21.725C61.7049 21.725 61.1382 21.5083 60.7049 21.075C60.2882 20.6417 60.0799 20.1083 60.0799 19.475ZM64.5299 34.975C64.3465 35.0083 64.0715 35.05 63.7049 35.1C63.3549 35.1667 62.9965 35.2 62.6299 35.2C62.2632 35.2 61.9299 35.175 61.6299 35.125C61.3465 35.075 61.1049 34.975 60.9049 34.825C60.7049 34.675 60.5465 34.475 60.4299 34.225C60.3299 33.9583 60.2799 33.6167 60.2799 33.2V23.025C60.4632 22.9917 60.7299 22.95 61.0799 22.9C61.4465 22.8333 61.8132 22.8 62.1799 22.8C62.5465 22.8 62.8715 22.825 63.1549 22.875C63.4549 22.925 63.7049 23.025 63.9049 23.175C64.1049 23.325 64.2549 23.5333 64.3549 23.8C64.4715 24.05 64.5299 24.3833 64.5299 24.8V34.975ZM71.4855 30.825C71.4855 31.2583 71.6189 31.5667 71.8855 31.75C72.1689 31.9333 72.5605 32.025 73.0605 32.025C73.3105 32.025 73.5689 32.0083 73.8355 31.975C74.1022 31.925 74.3355 31.8667 74.5355 31.8C74.6855 31.9833 74.8105 32.1917 74.9105 32.425C75.0272 32.6417 75.0855 32.9083 75.0855 33.225C75.0855 33.8583 74.8439 34.375 74.3605 34.775C73.8939 35.175 73.0605 35.375 71.8605 35.375C70.3939 35.375 69.2605 35.0417 68.4605 34.375C67.6772 33.7083 67.2855 32.625 67.2855 31.125V20.425C67.4689 20.375 67.7272 20.325 68.0605 20.275C68.4105 20.2083 68.7772 20.175 69.1605 20.175C69.8939 20.175 70.4605 20.3083 70.8605 20.575C71.2772 20.825 71.4855 21.3667 71.4855 22.2V23.8H74.7605C74.8605 23.9833 74.9522 24.2167 75.0355 24.5C75.1355 24.7667 75.1855 25.0667 75.1855 25.4C75.1855 25.9833 75.0522 26.4083 74.7855 26.675C74.5355 26.925 74.1939 27.05 73.7605 27.05H71.4855V30.825Z" fill="white"/>
</svg>
