<svg width="64" height="66" viewBox="0 0 64 66" fill="none" xmlns="http://www.w3.org/2000/svg">
<rect x="1" y="1.5" width="62" height="63" rx="11" fill="#00A2F1"/>
<rect x="1" y="1.5" width="62" height="63" rx="11" stroke="white" stroke-width="2"/>
<path d="M37.1432 37.6667C37.1432 37.8877 37.0529 38.0996 36.8922 38.2559C36.7314 38.4122 36.5134 38.4999 36.2861 38.4999H27.7143C27.487 38.4999 27.2689 38.4122 27.1082 38.2559C26.9474 38.0996 26.8571 37.8877 26.8571 37.6667C26.8571 37.4457 26.9474 37.2337 27.1082 37.0775C27.2689 36.9212 27.487 36.8334 27.7143 36.8334H36.2861C36.5134 36.8334 36.7314 36.9212 36.8922 37.0775C37.0529 37.2337 37.1432 37.4457 37.1432 37.6667ZM41.4291 24.3345C41.4328 25.7236 41.11 27.0952 40.4853 28.3445C39.8607 29.5938 38.9506 30.6879 37.8247 31.5433C37.6142 31.7001 37.4433 31.9017 37.3252 32.1326C37.2071 32.3635 37.1449 32.6176 37.1432 32.8754V33.5004C37.1432 33.9424 36.9626 34.3663 36.6411 34.6788C36.3196 34.9913 35.8836 35.1669 35.4289 35.1669H28.5715C28.1168 35.1669 27.6808 34.9913 27.3592 34.6788C27.0377 34.3663 26.8571 33.9424 26.8571 33.5004V32.8754C26.857 32.6207 26.7967 32.3693 26.681 32.1407C26.5652 31.9121 26.3972 31.7124 26.1896 31.5568C25.0665 30.7065 24.1571 29.619 23.5302 28.3766C22.9033 27.1342 22.5754 25.7694 22.5712 24.3856C22.5434 19.4214 26.6707 15.2874 31.773 15.1687C33.0302 15.1392 34.2808 15.3545 35.4511 15.802C36.6214 16.2494 37.6879 16.9199 38.5876 17.774C39.4874 18.628 40.2023 19.6485 40.6903 20.7751C41.1783 21.9018 41.4295 23.112 41.4291 24.3345ZM37.9886 23.3617C37.7664 22.1548 37.169 21.0431 36.2771 20.1763C35.3852 19.3094 34.2414 18.729 32.9999 18.5132C32.8888 18.495 32.7752 18.4982 32.6655 18.5227C32.5558 18.5472 32.4521 18.5925 32.3603 18.6559C32.2686 18.7194 32.1906 18.7998 32.1309 18.8925C32.0711 18.9852 32.0307 19.0885 32.012 19.1964C31.9933 19.3044 31.9966 19.4148 32.0218 19.5215C32.047 19.6281 32.0935 19.7289 32.1588 19.8181C32.2241 19.9073 32.3068 19.9831 32.4022 20.0412C32.4976 20.0993 32.6038 20.1386 32.7149 20.1568C34.4903 20.4474 35.9968 21.9118 36.2978 23.6408C36.3318 23.8349 36.4353 24.011 36.59 24.138C36.7448 24.265 36.9407 24.3346 37.1432 24.3345C37.1917 24.3342 37.24 24.3304 37.2879 24.3231C37.5119 24.2859 37.7116 24.1637 37.843 23.9834C37.9744 23.8032 38.0268 23.5795 37.9886 23.3617Z" fill="white"/>
<path d="M26.9475 11.3732C26.9979 11.4711 27.0676 11.5585 27.1527 11.6302C27.2378 11.7019 27.3366 11.7567 27.4434 11.7913C27.5503 11.8259 27.6631 11.8398 27.7755 11.832C27.8878 11.8242 27.9975 11.795 28.0982 11.7461C28.199 11.6971 28.2888 11.6293 28.3626 11.5466C28.4364 11.4639 28.4927 11.3679 28.5284 11.264C28.564 11.1601 28.5782 11.0504 28.5702 10.9412C28.5622 10.832 28.5322 10.7254 28.4818 10.6274L27.6247 8.96091C27.5229 8.76312 27.3445 8.61272 27.1287 8.54279C26.9129 8.47286 26.6774 8.48913 26.4739 8.58803C26.2704 8.68692 26.1157 8.86034 26.0438 9.07013C25.9718 9.27991 25.9886 9.50889 26.0903 9.70668L26.9475 11.3732ZM20.4737 15.9124L22.188 16.7456C22.3913 16.8445 22.6267 16.8609 22.8425 16.791C23.0582 16.7212 23.2365 16.5709 23.3382 16.3733C23.44 16.1756 23.4568 15.9468 23.3849 15.7371C23.3131 15.5274 23.1585 15.354 22.9552 15.2551L21.2408 14.4219C21.1402 14.3729 21.0305 14.3437 20.9183 14.3359C20.806 14.3281 20.6932 14.3419 20.5864 14.3765C20.4796 14.4111 20.3808 14.4658 20.2958 14.5374C20.2107 14.6091 20.141 14.6964 20.0906 14.7942C20.0402 14.8921 20.0102 14.9987 20.0022 15.1078C19.9942 15.217 20.0083 15.3266 20.0439 15.4304C20.0795 15.5343 20.1357 15.6303 20.2095 15.713C20.2832 15.7956 20.373 15.8634 20.4737 15.9124ZM41.4295 16.8331C41.5622 16.8332 41.6932 16.8032 41.812 16.7456L43.5263 15.9124C43.627 15.8634 43.7168 15.7956 43.7905 15.713C43.8643 15.6303 43.9205 15.5343 43.9561 15.4304C43.9917 15.3266 44.0058 15.217 43.9978 15.1078C43.9898 14.9987 43.9598 14.8921 43.9094 14.7942C43.859 14.6964 43.7893 14.6091 43.7042 14.5374C43.6192 14.4658 43.5204 14.4111 43.4136 14.3765C43.3068 14.3419 43.194 14.3281 43.0817 14.3359C42.9695 14.3437 42.8598 14.3729 42.7592 14.4219L41.0448 15.2551C40.8723 15.3393 40.7341 15.4776 40.6525 15.6476C40.5709 15.8176 40.5507 16.0094 40.5952 16.192C40.6397 16.3746 40.7463 16.5372 40.8977 16.6535C41.0491 16.7699 41.2365 16.8332 41.4295 16.8331ZM35.9028 11.7461C36.0036 11.7951 36.1133 11.8244 36.2256 11.8322C36.338 11.84 36.4508 11.8262 36.5577 11.7915C36.6646 11.7569 36.7634 11.7021 36.8485 11.6303C36.9336 11.5586 37.0033 11.4712 37.0536 11.3732L37.9108 9.70668C38.0125 9.50889 38.0292 9.27991 37.9573 9.07013C37.8854 8.86034 37.7306 8.68692 37.5272 8.58803C37.3237 8.48913 37.0882 8.47286 36.8724 8.54279C36.6565 8.61272 36.4782 8.76312 36.3764 8.96091L35.5192 10.6274C35.4688 10.7254 35.4387 10.832 35.4307 10.9412C35.4227 11.0505 35.4369 11.1602 35.4725 11.2641C35.5081 11.3679 35.5645 11.464 35.6383 11.5467C35.7121 11.6294 35.802 11.6972 35.9028 11.7461Z" fill="white"/>
<path d="M22.322 52.49C22.262 52.5033 22.1753 52.52 22.062 52.54C21.9553 52.56 21.8386 52.57 21.712 52.57C21.4586 52.57 21.2786 52.5233 21.172 52.43C21.072 52.3367 21.022 52.18 21.022 51.96V46.43C21.0753 46.4167 21.1586 46.4 21.272 46.38C21.392 46.36 21.5086 46.35 21.622 46.35C21.862 46.35 22.0386 46.3933 22.152 46.48C22.2653 46.5667 22.322 46.7267 22.322 46.96V48.93H24.822V46.43C24.8753 46.4167 24.9586 46.4 25.072 46.38C25.192 46.36 25.3086 46.35 25.422 46.35C25.662 46.35 25.8386 46.3967 25.952 46.49C26.0653 46.5767 26.122 46.7367 26.122 46.97V52.49C26.062 52.5033 25.9753 52.52 25.862 52.54C25.7553 52.56 25.6386 52.57 25.512 52.57C25.2586 52.57 25.0786 52.5233 24.972 52.43C24.872 52.3367 24.822 52.18 24.822 51.96V49.97H22.322V52.49ZM27.5628 47.8C27.6161 47.7867 27.6928 47.77 27.7928 47.75C27.8995 47.73 28.0128 47.72 28.1328 47.72C28.3728 47.72 28.5461 47.7633 28.6528 47.85C28.7661 47.9367 28.8228 48.09 28.8228 48.31V52.49C28.7695 52.5033 28.6895 52.52 28.5828 52.54C28.4828 52.56 28.3728 52.57 28.2528 52.57C28.0128 52.57 27.8361 52.5267 27.7228 52.44C27.6161 52.3533 27.5628 52.2 27.5628 51.98V47.8ZM27.4628 46.35C27.4628 46.1567 27.5295 45.9933 27.6628 45.86C27.8028 45.72 27.9795 45.65 28.1928 45.65C28.4061 45.65 28.5795 45.72 28.7128 45.86C28.8461 45.9933 28.9128 46.1567 28.9128 46.35C28.9128 46.55 28.8461 46.72 28.7128 46.86C28.5795 46.9933 28.4061 47.06 28.1928 47.06C27.9795 47.06 27.8028 46.9933 27.6628 46.86C27.5295 46.72 27.4628 46.55 27.4628 46.35ZM33.27 49.45C33.27 49.1633 33.1867 48.9533 33.02 48.82C32.86 48.6867 32.64 48.62 32.36 48.62C32.1667 48.62 31.9867 48.6433 31.82 48.69C31.66 48.7367 31.52 48.7967 31.4 48.87V52.49C31.34 52.5033 31.26 52.52 31.16 52.54C31.06 52.56 30.9467 52.57 30.82 52.57C30.5867 52.57 30.4133 52.5267 30.3 52.44C30.1867 52.3533 30.13 52.2 30.13 51.98V48.77C30.13 48.61 30.1633 48.48 30.23 48.38C30.2967 48.28 30.4 48.1833 30.54 48.09C30.7333 47.9567 30.99 47.8467 31.31 47.76C31.63 47.6667 31.9833 47.62 32.37 47.62C33.0567 47.62 33.5867 47.7733 33.96 48.08C34.34 48.38 34.53 48.8233 34.53 49.41V52.49C34.4767 52.5033 34.3967 52.52 34.29 52.54C34.19 52.56 34.08 52.57 33.96 52.57C33.72 52.57 33.5433 52.5267 33.43 52.44C33.3233 52.3533 33.27 52.2 33.27 51.98V49.45ZM37.0738 51.03C37.0738 51.2433 37.1372 51.3967 37.2638 51.49C37.3972 51.5833 37.5805 51.63 37.8138 51.63C37.9272 51.63 38.0405 51.6167 38.1538 51.59C38.2738 51.5633 38.3805 51.53 38.4738 51.49C38.5272 51.5433 38.5705 51.61 38.6038 51.69C38.6438 51.7633 38.6638 51.85 38.6638 51.95C38.6638 52.15 38.5738 52.3167 38.3938 52.45C38.2138 52.5767 37.9238 52.64 37.5238 52.64C36.9972 52.64 36.5805 52.5233 36.2738 52.29C35.9738 52.05 35.8238 51.6567 35.8238 51.11V46.52C35.8772 46.5067 35.9538 46.49 36.0538 46.47C36.1605 46.45 36.2738 46.44 36.3938 46.44C36.6272 46.44 36.7972 46.4833 36.9038 46.57C37.0172 46.6567 37.0738 46.81 37.0738 47.03V47.86H38.5438C38.5772 47.9133 38.6072 47.9833 38.6338 48.07C38.6605 48.1567 38.6738 48.25 38.6738 48.35C38.6738 48.5233 38.6338 48.65 38.5538 48.73C38.4738 48.81 38.3672 48.85 38.2338 48.85H37.0738V51.03ZM43.3708 51.16C43.3708 51.6267 43.1974 51.9933 42.8508 52.26C42.5041 52.52 41.9974 52.65 41.3308 52.65C41.0574 52.65 40.8074 52.63 40.5808 52.59C40.3608 52.55 40.1674 52.4933 40.0008 52.42C39.8408 52.34 39.7141 52.2467 39.6208 52.14C39.5341 52.0267 39.4908 51.9033 39.4908 51.77C39.4908 51.6433 39.5174 51.5333 39.5708 51.44C39.6308 51.3467 39.7074 51.27 39.8008 51.21C39.9874 51.33 40.2008 51.4367 40.4408 51.53C40.6874 51.6233 40.9708 51.67 41.2908 51.67C41.5641 51.67 41.7708 51.6267 41.9108 51.54C42.0508 51.4467 42.1208 51.32 42.1208 51.16C42.1208 50.8867 41.9208 50.7067 41.5208 50.62L40.9608 50.49C40.4674 50.3767 40.1008 50.2067 39.8608 49.98C39.6274 49.7533 39.5108 49.45 39.5108 49.07C39.5108 48.6367 39.6841 48.2867 40.0308 48.02C40.3774 47.7467 40.8641 47.61 41.4908 47.61C41.7308 47.61 41.9508 47.63 42.1508 47.67C42.3574 47.7033 42.5341 47.7567 42.6808 47.83C42.8341 47.8967 42.9508 47.98 43.0308 48.08C43.1174 48.1733 43.1608 48.2833 43.1608 48.41C43.1608 48.53 43.1341 48.6367 43.0808 48.73C43.0274 48.8167 42.9641 48.8867 42.8908 48.94C42.8308 48.9 42.7508 48.86 42.6508 48.82C42.5574 48.78 42.4508 48.7433 42.3308 48.71C42.2174 48.6767 42.0941 48.65 41.9608 48.63C41.8341 48.6033 41.7074 48.59 41.5808 48.59C41.3208 48.59 41.1174 48.6333 40.9708 48.72C40.8241 48.8 40.7508 48.9167 40.7508 49.07C40.7508 49.1833 40.7908 49.2767 40.8708 49.35C40.9574 49.4233 41.1041 49.4833 41.3108 49.53L41.8008 49.65C42.3541 49.7767 42.7541 49.9633 43.0008 50.21C43.2474 50.45 43.3708 50.7667 43.3708 51.16Z" fill="white"/>
</svg>
