<svg width="195" height="65" viewBox="0 0 195 65" fill="none" xmlns="http://www.w3.org/2000/svg">
<path d="M146.824 4.64007C146.824 4.64007 131.082 4.47941 87.9432 4.64007C64.6515 4.6465 48.174 4.64007 48.174 4.64007C6.46569 4.64007 0 8.31389 0 31.9902V33.0206C0 60.8603 6.47111 64.4527 55.3656 64.4527L94.0694 65L139.634 64.4527C188.529 64.4527 195 60.8603 195 33.0206V31.9902C195 8.31389 188.529 4.64007 146.824 4.64007Z" fill="#D05A24"/>
<path d="M146.824 0.0714057C146.824 0.0714057 131.082 -0.0892571 87.9432 0.0714057C64.6515 0.0778322 48.174 0.0714057 48.174 0.0714057C6.46569 0.0714057 0 3.74522 0 27.4216V28.4519C0 56.2916 6.47111 59.884 55.3656 59.884L94.0694 60.4313L139.634 59.884C188.529 59.884 195 56.2916 195 28.4519V27.4216C195 3.74522 188.529 0.0714057 146.824 0.0714057Z" fill="#F86509"/>
<path d="M37.175 36.9C36.9917 36.95 36.7 37 36.3 37.05C35.9167 37.1 35.5333 37.125 35.15 37.125C34.7667 37.125 34.425 37.0917 34.125 37.025C33.8417 36.975 33.6 36.875 33.4 36.725C33.2 36.575 33.05 36.3667 32.95 36.1C32.85 35.8333 32.8 35.4833 32.8 35.05V31.15H28V36.9C27.8167 36.95 27.525 37 27.125 37.05C26.7417 37.1 26.3583 37.125 25.975 37.125C25.5917 37.125 25.25 37.0917 24.95 37.025C24.6667 36.975 24.425 36.875 24.225 36.725C24.025 36.575 23.875 36.3667 23.775 36.1C23.675 35.8333 23.625 35.4833 23.625 35.05V21.85C23.8083 21.8167 24.1 21.775 24.5 21.725C24.9 21.6583 25.2833 21.625 25.65 21.625C26.0333 21.625 26.3667 21.6583 26.65 21.725C26.95 21.775 27.2 21.875 27.4 22.025C27.6 22.175 27.75 22.3833 27.85 22.65C27.95 22.9167 28 23.2667 28 23.7V27.7H32.8V21.85C32.9833 21.8167 33.275 21.775 33.675 21.725C34.075 21.6583 34.4583 21.625 34.825 21.625C35.2083 21.625 35.5417 21.6583 35.825 21.725C36.125 21.775 36.375 21.875 36.575 22.025C36.775 22.175 36.925 22.3833 37.025 22.65C37.125 22.9167 37.175 23.2667 37.175 23.7V36.9ZM39.6719 29.4C39.6719 28.1 39.8719 26.95 40.2719 25.95C40.6885 24.95 41.2469 24.1167 41.9469 23.45C42.6635 22.7667 43.4969 22.25 44.4469 21.9C45.4135 21.55 46.4552 21.375 47.5719 21.375C48.6885 21.375 49.7219 21.55 50.6719 21.9C51.6385 22.25 52.4802 22.7667 53.1969 23.45C53.9135 24.1167 54.4719 24.95 54.8719 25.95C55.2885 26.95 55.4969 28.1 55.4969 29.4C55.4969 30.7 55.2969 31.8583 54.8969 32.875C54.4969 33.875 53.9385 34.7167 53.2219 35.4C52.5219 36.0667 51.6885 36.575 50.7219 36.925C49.7552 37.275 48.7052 37.45 47.5719 37.45C46.4385 37.45 45.3885 37.275 44.4219 36.925C43.4552 36.5583 42.6219 36.0333 41.9219 35.35C41.2219 34.6667 40.6719 33.825 40.2719 32.825C39.8719 31.825 39.6719 30.6833 39.6719 29.4ZM44.1719 29.4C44.1719 30.9167 44.4802 32.05 45.0969 32.8C45.7135 33.55 46.5385 33.925 47.5719 33.925C48.6219 33.925 49.4552 33.55 50.0719 32.8C50.6885 32.05 50.9969 30.9167 50.9969 29.4C50.9969 27.9 50.6885 26.775 50.0719 26.025C49.4719 25.275 48.6469 24.9 47.5969 24.9C46.5635 24.9 45.7302 25.275 45.0969 26.025C44.4802 26.7583 44.1719 27.8833 44.1719 29.4ZM65 25.55C65.1833 25.4667 65.4667 25.375 65.85 25.275C66.25 25.1583 66.65 25.1 67.05 25.1C67.75 25.1 68.3333 25.2083 68.8 25.425C69.2667 25.625 69.55 25.925 69.65 26.325C69.8333 27.0083 70 27.65 70.15 28.25C70.3167 28.8333 70.475 29.4 70.625 29.95C70.775 30.4833 70.9167 31.0167 71.05 31.55C71.2 32.0833 71.3417 32.6417 71.475 33.225H71.6C71.75 32.2083 71.8833 31.2417 72 30.325C72.1167 29.3917 72.225 28.4833 72.325 27.6C72.425 26.7 72.525 25.8167 72.625 24.95C72.725 24.0667 72.825 23.175 72.925 22.275C73.5417 21.925 74.2 21.75 74.9 21.75C75.5167 21.75 76.05 21.8833 76.5 22.15C76.95 22.4167 77.175 22.8667 77.175 23.5C77.175 23.8667 77.1333 24.3917 77.05 25.075C76.9833 25.7417 76.8833 26.4917 76.75 27.325C76.6333 28.1583 76.4917 29.0333 76.325 29.95C76.1583 30.8667 75.9833 31.7417 75.8 32.575C75.6167 33.4083 75.425 34.1667 75.225 34.85C75.0417 35.5167 74.8667 36.0333 74.7 36.4C74.45 36.6333 74.0417 36.825 73.475 36.975C72.9083 37.125 72.325 37.2 71.725 37.2C70.9417 37.2 70.275 37.1 69.725 36.9C69.1917 36.6833 68.8667 36.3833 68.75 36C68.5333 35.3333 68.3 34.5417 68.05 33.625C67.8 32.7083 67.5333 31.7 67.25 30.6C67.0167 31.6833 66.775 32.7417 66.525 33.775C66.275 34.8083 66.05 35.6833 65.85 36.4C65.6 36.6333 65.225 36.825 64.725 36.975C64.225 37.125 63.675 37.2 63.075 37.2C62.325 37.2 61.6417 37.1 61.025 36.9C60.425 36.6833 60.0333 36.3833 59.85 36C59.7 35.7 59.5333 35.2583 59.35 34.675C59.1833 34.075 59.0083 33.4 58.825 32.65C58.6417 31.8833 58.45 31.0583 58.25 30.175C58.0667 29.2917 57.8917 28.4083 57.725 27.525C57.575 26.6417 57.4333 25.7833 57.3 24.95C57.1667 24.1 57.0667 23.325 57 22.625C57.2333 22.4083 57.5583 22.2083 57.975 22.025C58.3917 21.8417 58.8417 21.75 59.325 21.75C59.9583 21.75 60.475 21.8917 60.875 22.175C61.2917 22.4417 61.55 22.9 61.65 23.55C61.9167 25.25 62.1333 26.6667 62.3 27.8C62.4833 28.9333 62.625 29.8667 62.725 30.6C62.8417 31.3167 62.925 31.875 62.975 32.275C63.025 32.675 63.075 32.9917 63.125 33.225H63.25C63.4 32.5583 63.5417 31.9417 63.675 31.375C63.8083 30.8083 63.9417 30.2417 64.075 29.675C64.225 29.0917 64.375 28.475 64.525 27.825C64.675 27.1583 64.8333 26.4 65 25.55ZM83.8869 25.35C83.7702 25.1667 83.6619 24.9167 83.5619 24.6C83.4619 24.2833 83.4119 23.95 83.4119 23.6C83.4119 22.95 83.5536 22.4833 83.8369 22.2C84.1369 21.9167 84.5202 21.775 84.9869 21.775H95.8869C96.0036 21.9583 96.1119 22.2083 96.2119 22.525C96.3119 22.8417 96.3619 23.175 96.3619 23.525C96.3619 24.175 96.2119 24.6417 95.9119 24.925C95.6286 25.2083 95.2536 25.35 94.7869 25.35H92.0119V36.9C91.8286 36.95 91.5369 37 91.1369 37.05C90.7536 37.1 90.3702 37.125 89.9869 37.125C89.6036 37.125 89.2619 37.0917 88.9619 37.025C88.6786 36.975 88.4369 36.875 88.2369 36.725C88.0369 36.575 87.8869 36.3667 87.7869 36.1C87.6869 35.8333 87.6369 35.4833 87.6369 35.05V25.35H83.8869ZM97.0693 29.4C97.0693 28.1 97.2693 26.95 97.6693 25.95C98.086 24.95 98.6443 24.1167 99.3443 23.45C100.061 22.7667 100.894 22.25 101.844 21.9C102.811 21.55 103.853 21.375 104.969 21.375C106.086 21.375 107.119 21.55 108.069 21.9C109.036 22.25 109.878 22.7667 110.594 23.45C111.311 24.1167 111.869 24.95 112.269 25.95C112.686 26.95 112.894 28.1 112.894 29.4C112.894 30.7 112.694 31.8583 112.294 32.875C111.894 33.875 111.336 34.7167 110.619 35.4C109.919 36.0667 109.086 36.575 108.119 36.925C107.153 37.275 106.103 37.45 104.969 37.45C103.836 37.45 102.786 37.275 101.819 36.925C100.853 36.5583 100.019 36.0333 99.3193 35.35C98.6193 34.6667 98.0693 33.825 97.6693 32.825C97.2693 31.825 97.0693 30.6833 97.0693 29.4ZM101.569 29.4C101.569 30.9167 101.878 32.05 102.494 32.8C103.111 33.55 103.936 33.925 104.969 33.925C106.019 33.925 106.853 33.55 107.469 32.8C108.086 32.05 108.394 30.9167 108.394 29.4C108.394 27.9 108.086 26.775 107.469 26.025C106.869 25.275 106.044 24.9 104.994 24.9C103.961 24.9 103.128 25.275 102.494 26.025C101.878 26.7583 101.569 27.8833 101.569 29.4ZM126.077 28.875C126.777 28.875 127.311 28.7167 127.677 28.4C128.061 28.0667 128.252 27.5667 128.252 26.9C128.252 26.2667 128.052 25.7833 127.652 25.45C127.269 25.1 126.702 24.925 125.952 24.925C125.686 24.925 125.461 24.9333 125.277 24.95C125.111 24.95 124.936 24.9667 124.752 25V28.875H126.077ZM124.777 36.9C124.594 36.95 124.302 37 123.902 37.05C123.519 37.1 123.136 37.125 122.752 37.125C122.369 37.125 122.027 37.0917 121.727 37.025C121.444 36.975 121.202 36.875 121.002 36.725C120.802 36.575 120.652 36.3667 120.552 36.1C120.452 35.8333 120.402 35.4833 120.402 35.05V23.275C120.402 22.925 120.494 22.6583 120.677 22.475C120.877 22.275 121.144 22.1167 121.477 22C122.044 21.8 122.686 21.6583 123.402 21.575C124.136 21.475 124.869 21.425 125.602 21.425C127.902 21.425 129.661 21.9167 130.877 22.9C132.094 23.8833 132.702 25.2167 132.702 26.9C132.702 27.7167 132.569 28.4583 132.302 29.125C132.052 29.775 131.669 30.3417 131.152 30.825C130.652 31.2917 130.011 31.6583 129.227 31.925C128.461 32.175 127.569 32.3 126.552 32.3H124.777V36.9ZM137.254 37.075C136.537 37.075 135.97 36.8667 135.554 36.45C135.137 36.0333 134.929 35.4667 134.929 34.75V21.825C135.112 21.7917 135.404 21.75 135.804 21.7C136.204 21.6333 136.587 21.6 136.954 21.6C137.337 21.6 137.67 21.6333 137.954 21.7C138.254 21.75 138.504 21.85 138.704 22C138.904 22.15 139.054 22.3583 139.154 22.625C139.254 22.8917 139.304 23.2417 139.304 23.675V33.55H145.029C145.145 33.7333 145.254 33.9833 145.354 34.3C145.454 34.6 145.504 34.9167 145.504 35.25C145.504 35.9167 145.362 36.3917 145.079 36.675C144.795 36.9417 144.42 37.075 143.954 37.075H137.254ZM151.215 22.3C151.499 22.1333 151.924 21.975 152.49 21.825C153.074 21.675 153.657 21.6 154.24 21.6C155.074 21.6 155.807 21.725 156.44 21.975C157.09 22.2083 157.507 22.5833 157.69 23.1C157.99 23.9667 158.315 24.975 158.665 26.125C159.015 27.275 159.365 28.4667 159.715 29.7C160.065 30.9167 160.407 32.125 160.74 33.325C161.074 34.5083 161.365 35.5583 161.615 36.475C161.415 36.7083 161.115 36.8917 160.715 37.025C160.315 37.175 159.84 37.25 159.29 37.25C158.89 37.25 158.549 37.2167 158.265 37.15C157.999 37.0833 157.774 36.9833 157.59 36.85C157.424 36.7167 157.282 36.5417 157.165 36.325C157.065 36.1083 156.974 35.8583 156.89 35.575L156.44 33.85H151.915C151.782 34.35 151.649 34.8667 151.515 35.4C151.382 35.9333 151.249 36.45 151.115 36.95C150.882 37.0333 150.632 37.1 150.365 37.15C150.115 37.2167 149.807 37.25 149.44 37.25C148.59 37.25 147.957 37.1083 147.54 36.825C147.14 36.525 146.94 36.1167 146.94 35.6C146.94 35.3667 146.974 35.1333 147.04 34.9C147.107 34.6667 147.182 34.3917 147.265 34.075C147.382 33.625 147.54 33.0667 147.74 32.4C147.957 31.7333 148.19 31.0167 148.44 30.25C148.69 29.4667 148.957 28.6667 149.24 27.85C149.524 27.0333 149.79 26.2667 150.04 25.55C150.29 24.8167 150.515 24.1667 150.715 23.6C150.932 23.0333 151.099 22.6 151.215 22.3ZM154.215 25.525C153.982 26.225 153.715 27.0083 153.415 27.875C153.132 28.725 152.874 29.5917 152.64 30.475H155.74C155.507 29.575 155.265 28.7 155.015 27.85C154.782 26.9833 154.565 26.2083 154.365 25.525H154.215ZM170.491 36.9C170.308 36.95 170.024 37 169.641 37.05C169.258 37.1 168.883 37.125 168.516 37.125C167.749 37.125 167.174 37 166.791 36.75C166.408 36.4833 166.216 35.9333 166.216 35.1V31.725C165.799 31.1083 165.349 30.425 164.866 29.675C164.383 28.925 163.908 28.1583 163.441 27.375C162.974 26.5917 162.541 25.825 162.141 25.075C161.741 24.3083 161.416 23.6083 161.166 22.975C161.383 22.675 161.674 22.4 162.041 22.15C162.424 21.9 162.891 21.775 163.441 21.775C164.091 21.775 164.616 21.9083 165.016 22.175C165.433 22.4417 165.824 22.9417 166.191 23.675L168.266 27.85H168.416C168.649 27.3333 168.849 26.8667 169.016 26.45C169.199 26.0167 169.374 25.5917 169.541 25.175C169.708 24.7417 169.883 24.3 170.066 23.85C170.249 23.3833 170.458 22.85 170.691 22.25C170.991 22.1 171.324 21.9833 171.691 21.9C172.058 21.8167 172.408 21.775 172.741 21.775C173.324 21.775 173.816 21.9333 174.216 22.25C174.633 22.55 174.841 23.0083 174.841 23.625C174.841 23.825 174.799 24.0667 174.716 24.35C174.633 24.6333 174.441 25.0667 174.141 25.65C173.841 26.2167 173.399 26.9917 172.816 27.975C172.249 28.9583 171.474 30.2417 170.491 31.825V36.9Z" fill="white"/>
</svg>
