<svg width="46" height="69" viewBox="0 0 46 69" fill="none" xmlns="http://www.w3.org/2000/svg">
<g filter="url(#filter0_d_3_10530)">
<path d="M42 0H4C2.11438 0 1.17157 0 0.585786 0.585786C0 1.17157 0 2.11438 0 4V58.4007C0 61.7387 0 63.4078 1.06844 63.9701C2.13688 64.5325 3.51272 63.5877 6.26439 61.698L20.7356 51.7602C21.8315 51.0076 22.3794 50.6313 23 50.6313C23.6206 50.6313 24.1685 51.0076 25.2644 51.7602L39.7356 61.698C42.4873 63.5877 43.8631 64.5325 44.9316 63.9701C46 63.4078 46 61.7387 46 58.4007V4C46 2.11438 46 1.17157 45.4142 0.585786C44.8284 0 43.8856 0 42 0Z" fill="#00A2F1"/>
</g>
<path d="M17.875 38.057C17.3304 38.057 16.8997 37.8987 16.583 37.582C16.2664 37.2653 16.108 36.8347 16.108 36.29V26.448C16.26 26.4227 16.4817 26.391 16.773 26.353C17.0644 26.3023 17.3557 26.277 17.647 26.277C18.2804 26.277 18.7364 26.3847 19.015 26.6C19.2937 26.8153 19.433 27.2333 19.433 27.854V35.378H23.784C23.8727 35.5173 23.955 35.701 24.031 35.929C24.107 36.157 24.145 36.404 24.145 36.67C24.145 37.1387 24.0437 37.487 23.841 37.715C23.6384 37.943 23.3597 38.057 23.005 38.057H17.875ZM24.713 30.115C24.523 29.9883 24.333 29.811 24.143 29.583C23.953 29.355 23.858 29.0383 23.858 28.633C23.858 27.873 24.3203 27.341 25.245 27.037L27.373 26.315H28.076C28.6206 26.315 29.0513 26.4733 29.368 26.79C29.6846 27.1067 29.843 27.5373 29.843 28.082V37.981C29.7036 38.019 29.501 38.057 29.235 38.095C28.9816 38.133 28.703 38.152 28.399 38.152C27.7656 38.152 27.3096 38.0507 27.031 37.848C26.7523 37.6327 26.613 37.2273 26.613 36.632V29.526L24.713 30.115Z" fill="white"/>
<defs>
<filter id="filter0_d_3_10530" x="0" y="0" width="46" height="68.1314" filterUnits="userSpaceOnUse" color-interpolation-filters="sRGB">
<feFlood flood-opacity="0" result="BackgroundImageFix"/>
<feColorMatrix in="SourceAlpha" type="matrix" values="0 0 0 0 0 0 0 0 0 0 0 0 0 0 0 0 0 0 127 0" result="hardAlpha"/>
<feOffset dy="4"/>
<feComposite in2="hardAlpha" operator="out"/>
<feColorMatrix type="matrix" values="0 0 0 0 0.0862745 0 0 0 0 0.32549 0 0 0 0 0.533333 0 0 0 1 0"/>
<feBlend mode="normal" in2="BackgroundImageFix" result="effect1_dropShadow_3_10530"/>
<feBlend mode="normal" in="SourceGraphic" in2="effect1_dropShadow_3_10530" result="shape"/>
</filter>
</defs>
</svg>
