<svg width="46" height="69" viewBox="0 0 46 69" fill="none" xmlns="http://www.w3.org/2000/svg">
<g filter="url(#filter0_d_3_10530)">
<path d="M42 0H4C2.11438 0 1.17157 0 0.585786 0.585786C0 1.17157 0 2.11438 0 4V58.4007C0 61.7387 0 63.4078 1.06844 63.9701C2.13688 64.5325 3.51272 63.5877 6.26439 61.698L20.7356 51.7602C21.8315 51.0076 22.3794 50.6313 23 50.6313C23.6206 50.6313 24.1685 51.0076 25.2644 51.7602L39.7356 61.698C42.4873 63.5877 43.8631 64.5325 44.9316 63.9701C46 63.4078 46 61.7387 46 58.4007V4C46 2.11438 46 1.17157 45.4142 0.585786C44.8284 0 43.8856 0 42 0Z" fill="#00A2F1"/>
</g>
<path d="M14.401 30.602H17.726V38.886L16.168 39.057C15.6233 39.057 15.1927 38.8987 14.876 38.582C14.5593 38.2653 14.401 37.8347 14.401 37.29V30.602ZM16.168 39.057V36.378H22.077C22.1657 36.5173 22.248 36.701 22.324 36.929C22.4 37.157 22.438 37.404 22.438 37.67C22.438 38.1387 22.3367 38.487 22.134 38.715C21.9313 38.943 21.6527 39.057 21.298 39.057H16.168ZM17.726 34.991H14.401V27.448C14.553 27.4227 14.7747 27.391 15.066 27.353C15.37 27.3023 15.6613 27.277 15.94 27.277C16.5733 27.277 17.0293 27.3847 17.308 27.6C17.5867 27.8153 17.726 28.2333 17.726 28.854V34.991ZM24.0472 29.12C24.0472 28.6767 24.1866 28.3157 24.4652 28.037C24.7566 27.7457 25.1556 27.5303 25.6622 27.391C26.1816 27.239 26.7896 27.163 27.4862 27.163C28.4869 27.163 29.3229 27.3213 29.9942 27.638C30.6656 27.942 31.1722 28.36 31.5142 28.892C31.8562 29.424 32.0272 30.0257 32.0272 30.697C32.0272 31.3683 31.8372 32.0207 31.4572 32.654C31.0899 33.2747 30.5262 33.889 29.7662 34.497L27.2772 36.492H31.8372C31.9132 36.6187 31.9829 36.796 32.0462 37.024C32.1222 37.2393 32.1602 37.4737 32.1602 37.727C32.1602 38.183 32.0589 38.5123 31.8562 38.715C31.6536 38.905 31.3876 39 31.0582 39H24.4652C24.1866 38.81 23.9649 38.563 23.8002 38.259C23.6482 37.955 23.5722 37.6067 23.5722 37.214C23.5722 36.7833 23.6609 36.4223 23.8382 36.131C24.0282 35.827 24.2246 35.5863 24.4272 35.409L27.0492 33.167C27.7079 32.6097 28.1576 32.16 28.3982 31.818C28.6389 31.476 28.7592 31.1657 28.7592 30.887C28.7592 30.5323 28.6136 30.2537 28.3222 30.051C28.0436 29.8483 27.6509 29.747 27.1442 29.747C26.6376 29.747 26.1816 29.8293 25.7762 29.994C25.3836 30.146 25.0542 30.3107 24.7882 30.488C24.5856 30.336 24.4082 30.146 24.2562 29.918C24.1169 29.69 24.0472 29.424 24.0472 29.12Z" fill="white"/>
<defs>
<filter id="filter0_d_3_10530" x="0" y="0" width="46" height="68.1314" filterUnits="userSpaceOnUse" color-interpolation-filters="sRGB">
<feFlood flood-opacity="0" result="BackgroundImageFix"/>
<feColorMatrix in="SourceAlpha" type="matrix" values="0 0 0 0 0 0 0 0 0 0 0 0 0 0 0 0 0 0 127 0" result="hardAlpha"/>
<feOffset dy="4"/>
<feComposite in2="hardAlpha" operator="out"/>
<feColorMatrix type="matrix" values="0 0 0 0 0.0862745 0 0 0 0 0.32549 0 0 0 0 0.533333 0 0 0 1 0"/>
<feBlend mode="normal" in2="BackgroundImageFix" result="effect1_dropShadow_3_10530"/>
<feBlend mode="normal" in="SourceGraphic" in2="effect1_dropShadow_3_10530" result="shape"/>
</filter>
</defs>
</svg>
