<svg width="46" height="69" viewBox="0 0 46 69" fill="none" xmlns="http://www.w3.org/2000/svg">
<g filter="url(#filter0_d_3_10530)">
<path d="M42 0H4C2.11438 0 1.17157 0 0.585786 0.585786C0 1.17157 0 2.11438 0 4V58.4007C0 61.7387 0 63.4078 1.06844 63.9701C2.13688 64.5325 3.51272 63.5877 6.26439 61.698L20.7356 51.7602C21.8315 51.0076 22.3794 50.6313 23 50.6313C23.6206 50.6313 24.1685 51.0076 25.2644 51.7602L39.7356 61.698C42.4873 63.5877 43.8631 64.5325 44.9316 63.9701C46 63.4078 46 61.7387 46 58.4007V4C46 2.11438 46 1.17157 45.4142 0.585786C44.8284 0 43.8856 0 42 0Z" fill="#00A2F1"/>
</g>
<path d="M14.4474 30.602H17.7724V38.886L16.2144 39.057C15.6697 39.057 15.2391 38.8987 14.9224 38.582C14.6057 38.2653 14.4474 37.8347 14.4474 37.29V30.602ZM16.2144 39.057V36.378H22.1234C22.2121 36.5173 22.2944 36.701 22.3704 36.929C22.4464 37.157 22.4844 37.404 22.4844 37.67C22.4844 38.1387 22.3831 38.487 22.1804 38.715C21.9777 38.943 21.6991 39.057 21.3444 39.057H16.2144ZM17.7724 34.991H14.4474V27.448C14.5994 27.4227 14.8211 27.391 15.1124 27.353C15.4164 27.3023 15.7077 27.277 15.9864 27.277C16.6197 27.277 17.0757 27.3847 17.3544 27.6C17.6331 27.8153 17.7724 28.2333 17.7724 28.854V34.991ZM27.3806 27.163C28.8246 27.163 29.9266 27.467 30.6866 28.075C31.4593 28.6703 31.8456 29.4747 31.8456 30.488C31.8456 30.8933 31.7696 31.2607 31.6176 31.59C31.4783 31.9067 31.2819 32.1853 31.0286 32.426C30.7879 32.6667 30.5156 32.8567 30.2116 32.996C30.5663 33.1227 30.8829 33.3063 31.1616 33.547C31.4529 33.775 31.6873 34.0727 31.8646 34.44C32.0419 34.8073 32.1306 35.2633 32.1306 35.808C32.1306 36.53 31.9279 37.157 31.5226 37.689C31.1173 38.2083 30.5599 38.6073 29.8506 38.886C29.1539 39.1647 28.3433 39.304 27.4186 39.304C26.5446 39.304 25.8099 39.2217 25.2146 39.057C24.6319 38.8923 24.1886 38.6643 23.8846 38.373C23.5806 38.069 23.4286 37.727 23.4286 37.347C23.4286 37.005 23.5109 36.7073 23.6756 36.454C23.8403 36.2007 24.0429 36.0107 24.2836 35.884C24.5369 36.0487 24.8726 36.2323 25.2906 36.435C25.7213 36.6377 26.2786 36.739 26.9626 36.739C27.5959 36.739 28.0709 36.625 28.3876 36.397C28.7043 36.1563 28.8626 35.8587 28.8626 35.504C28.8626 35.1367 28.7359 34.858 28.4826 34.668C28.2419 34.478 27.8176 34.383 27.2096 34.383H25.4236C25.3349 34.2437 25.2589 34.0727 25.1956 33.87C25.1323 33.6673 25.1006 33.4267 25.1006 33.148C25.1006 32.8567 25.1323 32.6033 25.1956 32.388C25.2589 32.1727 25.3349 32.0017 25.4236 31.875H27.2096C27.6783 31.875 28.0203 31.7863 28.2356 31.609C28.4636 31.4317 28.5776 31.172 28.5776 30.83C28.5776 30.5007 28.4319 30.2347 28.1406 30.032C27.8493 29.8293 27.4123 29.728 26.8296 29.728C26.3229 29.728 25.8669 29.7913 25.4616 29.918C25.0689 30.032 24.7459 30.1777 24.4926 30.355C24.2899 30.203 24.1126 30.0193 23.9606 29.804C23.8213 29.576 23.7516 29.31 23.7516 29.006C23.7516 28.5753 23.8973 28.227 24.1886 27.961C24.4926 27.695 24.9169 27.4987 25.4616 27.372C26.0063 27.2327 26.6459 27.163 27.3806 27.163Z" fill="white"/>
<defs>
<filter id="filter0_d_3_10530" x="0" y="0" width="46" height="68.1314" filterUnits="userSpaceOnUse" color-interpolation-filters="sRGB">
<feFlood flood-opacity="0" result="BackgroundImageFix"/>
<feColorMatrix in="SourceAlpha" type="matrix" values="0 0 0 0 0 0 0 0 0 0 0 0 0 0 0 0 0 0 127 0" result="hardAlpha"/>
<feOffset dy="4"/>
<feComposite in2="hardAlpha" operator="out"/>
<feColorMatrix type="matrix" values="0 0 0 0 0.0862745 0 0 0 0 0.32549 0 0 0 0 0.533333 0 0 0 1 0"/>
<feBlend mode="normal" in2="BackgroundImageFix" result="effect1_dropShadow_3_10530"/>
<feBlend mode="normal" in="SourceGraphic" in2="effect1_dropShadow_3_10530" result="shape"/>
</filter>
</defs>
</svg>
