<svg width="108" height="65" viewBox="0 0 108 65" fill="none" xmlns="http://www.w3.org/2000/svg">
<path d="M81.318 8.06667C81.318 8.06667 72.599 7.91667 48.707 8.06667C35.807 8.07267 26.681 8.06667 26.681 8.06667C3.581 8.06667 0 11.4967 0 33.6017V34.5637C0 60.5557 3.584 63.9097 30.664 63.9097L52.1 64.4207L77.336 63.9097C104.416 63.9097 108 60.5557 108 34.5637V33.6017C108 11.4967 104.416 8.06667 81.318 8.06667Z" fill="#D05A24"/>
<path d="M81.318 0.0666667C81.318 0.0666667 72.599 -0.0833333 48.707 0.0666667C35.807 0.0726667 26.681 0.0666667 26.681 0.0666667C3.581 0.0666667 0 3.49666 0 25.6017V26.5637C0 52.5557 3.584 55.9097 30.664 55.9097L52.1 56.4207L77.336 55.9097C104.416 55.9097 108 52.5557 108 26.5637V25.6017C108 3.49666 104.416 0.0666667 81.318 0.0666667Z" fill="#F86509"/>
<path d="M33.3 26.875C34 26.875 34.5333 26.7167 34.9 26.4C35.2833 26.0667 35.475 25.5667 35.475 24.9C35.475 24.2667 35.275 23.7833 34.875 23.45C34.4917 23.1 33.925 22.925 33.175 22.925C32.9083 22.925 32.6833 22.9333 32.5 22.95C32.3333 22.95 32.1583 22.9667 31.975 23V26.875H33.3ZM32 34.9C31.8167 34.95 31.525 35 31.125 35.05C30.7417 35.1 30.3583 35.125 29.975 35.125C29.5917 35.125 29.25 35.0917 28.95 35.025C28.6667 34.975 28.425 34.875 28.225 34.725C28.025 34.575 27.875 34.3667 27.775 34.1C27.675 33.8333 27.625 33.4833 27.625 33.05V21.275C27.625 20.925 27.7167 20.6583 27.9 20.475C28.1 20.275 28.3667 20.1167 28.7 20C29.2667 19.8 29.9083 19.6583 30.625 19.575C31.3583 19.475 32.0917 19.425 32.825 19.425C35.125 19.425 36.8833 19.9167 38.1 20.9C39.3167 21.8833 39.925 23.2167 39.925 24.9C39.925 25.7167 39.7917 26.4583 39.525 27.125C39.275 27.775 38.8917 28.3417 38.375 28.825C37.875 29.2917 37.2333 29.6583 36.45 29.925C35.6833 30.175 34.7917 30.3 33.775 30.3H32V34.9ZM44.4764 35.075C43.7597 35.075 43.193 34.8667 42.7764 34.45C42.3597 34.0333 42.1514 33.4667 42.1514 32.75V19.825C42.3347 19.7917 42.6264 19.75 43.0264 19.7C43.4264 19.6333 43.8097 19.6 44.1764 19.6C44.5597 19.6 44.893 19.6333 45.1764 19.7C45.4764 19.75 45.7264 19.85 45.9264 20C46.1264 20.15 46.2764 20.3583 46.3764 20.625C46.4764 20.8917 46.5264 21.2417 46.5264 21.675V31.55H52.2514C52.368 31.7333 52.4764 31.9833 52.5764 32.3C52.6764 32.6 52.7264 32.9167 52.7264 33.25C52.7264 33.9167 52.5847 34.3917 52.3014 34.675C52.018 34.9417 51.643 35.075 51.1764 35.075H44.4764ZM58.4379 20.3C58.7212 20.1333 59.1462 19.975 59.7129 19.825C60.2962 19.675 60.8796 19.6 61.4629 19.6C62.2962 19.6 63.0296 19.725 63.6629 19.975C64.3129 20.2083 64.7296 20.5833 64.9129 21.1C65.2129 21.9667 65.5379 22.975 65.8879 24.125C66.2379 25.275 66.5879 26.4667 66.9379 27.7C67.2879 28.9167 67.6296 30.125 67.9629 31.325C68.2962 32.5083 68.5879 33.5583 68.8379 34.475C68.6379 34.7083 68.3379 34.8917 67.9379 35.025C67.5379 35.175 67.0629 35.25 66.5129 35.25C66.1129 35.25 65.7712 35.2167 65.4879 35.15C65.2212 35.0833 64.9962 34.9833 64.8129 34.85C64.6462 34.7167 64.5046 34.5417 64.3879 34.325C64.2879 34.1083 64.1962 33.8583 64.1129 33.575L63.6629 31.85H59.1379C59.0046 32.35 58.8712 32.8667 58.7379 33.4C58.6046 33.9333 58.4712 34.45 58.3379 34.95C58.1046 35.0333 57.8546 35.1 57.5879 35.15C57.3379 35.2167 57.0296 35.25 56.6629 35.25C55.8129 35.25 55.1796 35.1083 54.7629 34.825C54.3629 34.525 54.1629 34.1167 54.1629 33.6C54.1629 33.3667 54.1962 33.1333 54.2629 32.9C54.3296 32.6667 54.4046 32.3917 54.4879 32.075C54.6046 31.625 54.7629 31.0667 54.9629 30.4C55.1796 29.7333 55.4129 29.0167 55.6629 28.25C55.9129 27.4667 56.1796 26.6667 56.4629 25.85C56.7462 25.0333 57.0129 24.2667 57.2629 23.55C57.5129 22.8167 57.7379 22.1667 57.9379 21.6C58.1546 21.0333 58.3212 20.6 58.4379 20.3ZM61.4379 23.525C61.2046 24.225 60.9379 25.0083 60.6379 25.875C60.3546 26.725 60.0962 27.5917 59.8629 28.475H62.9629C62.7296 27.575 62.4879 26.7 62.2379 25.85C62.0046 24.9833 61.7879 24.2083 61.5879 23.525H61.4379ZM77.7137 34.9C77.5303 34.95 77.247 35 76.8637 35.05C76.4803 35.1 76.1053 35.125 75.7387 35.125C74.972 35.125 74.397 35 74.0137 34.75C73.6303 34.4833 73.4387 33.9333 73.4387 33.1V29.725C73.022 29.1083 72.572 28.425 72.0887 27.675C71.6053 26.925 71.1303 26.1583 70.6637 25.375C70.197 24.5917 69.7637 23.825 69.3637 23.075C68.9637 22.3083 68.6387 21.6083 68.3887 20.975C68.6053 20.675 68.897 20.4 69.2637 20.15C69.647 19.9 70.1137 19.775 70.6637 19.775C71.3137 19.775 71.8387 19.9083 72.2387 20.175C72.6553 20.4417 73.047 20.9417 73.4137 21.675L75.4887 25.85H75.6387C75.872 25.3333 76.072 24.8667 76.2387 24.45C76.422 24.0167 76.597 23.5917 76.7637 23.175C76.9303 22.7417 77.1053 22.3 77.2887 21.85C77.472 21.3833 77.6803 20.85 77.9137 20.25C78.2137 20.1 78.547 19.9833 78.9137 19.9C79.2803 19.8167 79.6303 19.775 79.9637 19.775C80.547 19.775 81.0387 19.9333 81.4387 20.25C81.8553 20.55 82.0637 21.0083 82.0637 21.625C82.0637 21.825 82.022 22.0667 81.9387 22.35C81.8553 22.6333 81.6637 23.0667 81.3637 23.65C81.0637 24.2167 80.622 24.9917 80.0387 25.975C79.472 26.9583 78.697 28.2417 77.7137 29.825V34.9Z" fill="white"/>
</svg>
