<svg width="64" height="66" viewBox="0 0 64 66" fill="none" xmlns="http://www.w3.org/2000/svg">
<rect x="1" y="1.5" width="62" height="63" rx="11" fill="#00A2F1"/>
<rect x="1" y="1.5" width="62" height="63" rx="11" stroke="white" stroke-width="2"/>
<path fill-rule="evenodd" clip-rule="evenodd" d="M42 9.5C42.7963 9.5 43.5588 9.81625 44.1212 10.3788C44.6837 10.9412 45 11.7037 45 12.5V34.5C45 35.2963 44.6838 36.0588 44.1212 36.6212C43.5588 37.1837 42.7963 37.5 42 37.5H22C21.2037 37.5 20.4412 37.1838 19.8788 36.6212C19.3163 36.0588 19 35.2963 19 34.5V12.5C19 11.7037 19.3162 10.9412 19.8788 10.3788C20.4412 9.81626 21.2037 9.5 22 9.5H42ZM24.4998 21.9998C23.6724 21.9998 22.9998 22.6724 22.9998 23.4998C22.9998 24.3273 23.6724 24.9998 24.4998 24.9998C25.3273 24.9998 25.9998 24.3273 25.9998 23.4998C25.9998 22.6724 25.3273 21.9998 24.4998 21.9998ZM24.4998 14.9998C23.6724 14.9998 22.9998 15.6724 22.9998 16.4998C22.9998 17.3273 23.6724 17.9998 24.4998 17.9998C25.3273 17.9998 25.9998 17.3273 25.9998 16.4998C25.9998 15.6724 25.3273 14.9998 24.4998 14.9998ZM28.9997 24.5H39.9997C40.5522 24.5 40.9997 24.0525 40.9997 23.5C40.9997 22.9475 40.5522 22.5 39.9997 22.5H28.9997C28.4472 22.5 27.9997 22.9475 27.9997 23.5C27.9997 24.0525 28.4472 24.5 28.9997 24.5ZM28.9997 17.5H39.9997C40.5522 17.5 40.9997 17.0525 40.9997 16.5C40.9997 15.9475 40.5522 15.5 39.9997 15.5H28.9997C28.4472 15.5 27.9997 15.9475 27.9997 16.5C27.9997 17.0525 28.4472 17.5 28.9997 17.5ZM24.4998 29.0002C23.6724 29.0002 22.9998 29.6727 22.9998 30.5002C22.9998 31.3276 23.6724 32.0002 24.4998 32.0002C25.3273 32.0002 25.9998 31.3276 25.9998 30.5002C25.9998 29.6727 25.3273 29.0002 24.4998 29.0002ZM28.9997 31.5002H39.9997C40.5522 31.5002 40.9997 31.0527 40.9997 30.5002C40.9997 29.9476 40.5522 29.5002 39.9997 29.5002H28.9997C28.4472 29.5002 27.9997 29.9476 27.9997 30.5002C27.9997 31.0527 28.4472 31.5002 28.9997 31.5002Z" fill="white"/>
<path d="M21.9216 52.49C21.8616 52.5033 21.7749 52.52 21.6616 52.54C21.5549 52.56 21.4382 52.57 21.3116 52.57C21.0582 52.57 20.8782 52.5233 20.7716 52.43C20.6716 52.3367 20.6216 52.18 20.6216 51.96V46.94C20.6216 46.8133 20.6549 46.7167 20.7216 46.65C20.7882 46.5833 20.8816 46.53 21.0016 46.49C21.2149 46.4167 21.4649 46.3667 21.7516 46.34C22.0449 46.3067 22.3449 46.29 22.6516 46.29C23.5316 46.29 24.1916 46.4733 24.6316 46.84C25.0716 47.2 25.2916 47.7 25.2916 48.34C25.2916 48.76 25.1816 49.1267 24.9616 49.44C24.7416 49.7467 24.4382 49.9833 24.0516 50.15C24.3449 50.53 24.6249 50.8933 24.8916 51.24C25.1649 51.58 25.3682 51.8467 25.5016 52.04C25.4482 52.2133 25.3549 52.35 25.2216 52.45C25.0882 52.5433 24.9416 52.59 24.7816 52.59C24.5749 52.59 24.4149 52.5433 24.3016 52.45C24.1949 52.3567 24.0882 52.23 23.9816 52.07L22.8516 50.38H21.9216V52.49ZM22.7216 49.36C23.1016 49.36 23.4049 49.2767 23.6316 49.11C23.8649 48.9433 23.9816 48.69 23.9816 48.35C23.9816 47.6767 23.5316 47.34 22.6316 47.34C22.4982 47.34 22.3682 47.3467 22.2416 47.36C22.1216 47.3733 22.0082 47.3867 21.9016 47.4V49.36H22.7216ZM30.7898 51.57C30.7898 51.7233 30.7631 51.8533 30.7098 51.96C30.6564 52.06 30.5598 52.15 30.4198 52.23C30.2264 52.35 29.9798 52.45 29.6798 52.53C29.3864 52.61 29.0498 52.65 28.6698 52.65C28.3231 52.65 28.0098 52.61 27.7298 52.53C27.4498 52.4567 27.2098 52.34 27.0098 52.18C26.8098 52.02 26.6564 51.8167 26.5498 51.57C26.4431 51.3233 26.3898 51.03 26.3898 50.69V47.78C26.4431 47.76 26.5198 47.7433 26.6198 47.73C26.7264 47.71 26.8431 47.7 26.9698 47.7C27.2031 47.7 27.3764 47.7433 27.4898 47.83C27.6031 47.91 27.6598 48.0633 27.6598 48.29V50.67C27.6598 51.0167 27.7464 51.2667 27.9198 51.42C28.0998 51.5667 28.3531 51.64 28.6798 51.64C28.8864 51.64 29.0598 51.62 29.1998 51.58C29.3464 51.54 29.4564 51.4967 29.5298 51.45V47.78C29.5831 47.76 29.6598 47.7433 29.7598 47.73C29.8664 47.71 29.9798 47.7 30.0998 47.7C30.3398 47.7 30.5131 47.7433 30.6198 47.83C30.7331 47.91 30.7898 48.0633 30.7898 48.29V51.57ZM33.3838 52.49C33.3305 52.5033 33.2505 52.52 33.1438 52.54C33.0438 52.56 32.9338 52.57 32.8138 52.57C32.5738 52.57 32.3972 52.5267 32.2838 52.44C32.1772 52.3533 32.1238 52.2 32.1238 51.98V46C32.1772 45.98 32.2538 45.9633 32.3538 45.95C32.4605 45.93 32.5738 45.92 32.6938 45.92C32.9338 45.92 33.1072 45.9633 33.2138 46.05C33.3272 46.1367 33.3838 46.29 33.3838 46.51V52.49ZM35.7401 50.7C35.8334 51.04 36.0067 51.2867 36.2601 51.44C36.5134 51.5933 36.8267 51.67 37.2001 51.67C37.4801 51.67 37.7367 51.63 37.9701 51.55C38.2101 51.4633 38.4034 51.3733 38.5501 51.28C38.6434 51.3333 38.7201 51.4067 38.7801 51.5C38.8401 51.5933 38.8701 51.6933 38.8701 51.8C38.8701 51.9333 38.8234 52.0533 38.7301 52.16C38.6434 52.26 38.5201 52.3467 38.3601 52.42C38.2067 52.4933 38.0234 52.55 37.8101 52.59C37.5967 52.63 37.3667 52.65 37.1201 52.65C36.7267 52.65 36.3667 52.5967 36.0401 52.49C35.7201 52.3833 35.4434 52.2233 35.2101 52.01C34.9834 51.79 34.8034 51.52 34.6701 51.2C34.5434 50.88 34.4801 50.5067 34.4801 50.08C34.4801 49.6667 34.5434 49.3067 34.6701 49C34.7967 48.6933 34.9667 48.4367 35.1801 48.23C35.4001 48.0233 35.6534 47.87 35.9401 47.77C36.2267 47.67 36.5301 47.62 36.8501 47.62C37.1767 47.62 37.4767 47.6733 37.7501 47.78C38.0234 47.88 38.2567 48.0233 38.4501 48.21C38.6434 48.39 38.7934 48.61 38.9001 48.87C39.0134 49.1233 39.0701 49.4 39.0701 49.7C39.0701 49.8867 39.0201 50.0267 38.9201 50.12C38.8267 50.2133 38.6934 50.2733 38.5201 50.3L35.7401 50.7ZM36.8501 48.57C36.5234 48.57 36.2501 48.68 36.0301 48.9C35.8101 49.1133 35.6867 49.42 35.6601 49.82L37.8801 49.49C37.8534 49.2433 37.7567 49.03 37.5901 48.85C37.4234 48.6633 37.1767 48.57 36.8501 48.57ZM43.7712 51.16C43.7712 51.6267 43.5978 51.9933 43.2512 52.26C42.9045 52.52 42.3978 52.65 41.7312 52.65C41.4578 52.65 41.2078 52.63 40.9812 52.59C40.7612 52.55 40.5678 52.4933 40.4012 52.42C40.2412 52.34 40.1145 52.2467 40.0212 52.14C39.9345 52.0267 39.8912 51.9033 39.8912 51.77C39.8912 51.6433 39.9178 51.5333 39.9712 51.44C40.0312 51.3467 40.1078 51.27 40.2012 51.21C40.3878 51.33 40.6012 51.4367 40.8412 51.53C41.0878 51.6233 41.3712 51.67 41.6912 51.67C41.9645 51.67 42.1712 51.6267 42.3112 51.54C42.4512 51.4467 42.5212 51.32 42.5212 51.16C42.5212 50.8867 42.3212 50.7067 41.9212 50.62L41.3612 50.49C40.8678 50.3767 40.5012 50.2067 40.2612 49.98C40.0278 49.7533 39.9112 49.45 39.9112 49.07C39.9112 48.6367 40.0845 48.2867 40.4312 48.02C40.7778 47.7467 41.2645 47.61 41.8912 47.61C42.1312 47.61 42.3512 47.63 42.5512 47.67C42.7578 47.7033 42.9345 47.7567 43.0812 47.83C43.2345 47.8967 43.3512 47.98 43.4312 48.08C43.5178 48.1733 43.5612 48.2833 43.5612 48.41C43.5612 48.53 43.5345 48.6367 43.4812 48.73C43.4278 48.8167 43.3645 48.8867 43.2912 48.94C43.2312 48.9 43.1512 48.86 43.0512 48.82C42.9578 48.78 42.8512 48.7433 42.7312 48.71C42.6178 48.6767 42.4945 48.65 42.3612 48.63C42.2345 48.6033 42.1078 48.59 41.9812 48.59C41.7212 48.59 41.5178 48.6333 41.3712 48.72C41.2245 48.8 41.1512 48.9167 41.1512 49.07C41.1512 49.1833 41.1912 49.2767 41.2712 49.35C41.3578 49.4233 41.5045 49.4833 41.7112 49.53L42.2012 49.65C42.7545 49.7767 43.1545 49.9633 43.4012 50.21C43.6478 50.45 43.7712 50.7667 43.7712 51.16Z" fill="white"/>
</svg>
