<svg width="64" height="66" viewBox="0 0 64 66" fill="none" xmlns="http://www.w3.org/2000/svg">
<rect x="1" y="1.5" width="62" height="63" rx="11" fill="#00A2F1"/>
<rect x="1" y="1.5" width="62" height="63" rx="11" stroke="white" stroke-width="2"/>
<path d="M23.2556 32.375V13.625C23.2556 13.004 23.7596 12.5 24.3806 12.5H25.6856C26.3066 12.5 26.8106 13.004 26.8106 13.625V32.375C26.8106 32.996 26.3066 33.5 25.6856 33.5H24.3806C23.7596 33.5 23.2556 32.996 23.2556 32.375ZM40.4148 22.1175L31.1306 12.8333C30.4218 12.1245 29.2098 12.6263 29.2098 13.629V32.1968C29.2098 33.1988 30.4218 33.7013 31.1306 32.9925L40.4148 23.7083C40.8543 23.2688 40.8543 22.5563 40.4148 22.1175Z" fill="white"/>
<path d="M25.0966 47.59C25.4833 47.59 25.7633 47.5133 25.9366 47.36C26.1166 47.2067 26.2066 47.02 26.2066 46.8C26.2066 46.6 26.1366 46.4367 25.9966 46.31C25.8566 46.1833 25.6466 46.0767 25.3666 45.99L24.7266 45.79C24.3933 45.6833 24.1 45.5567 23.8466 45.41C23.5933 45.2633 23.3966 45.08 23.2566 44.86C23.1166 44.64 23.0466 44.3633 23.0466 44.03C23.0466 43.49 23.25 43.0633 23.6566 42.75C24.0633 42.43 24.62 42.27 25.3266 42.27C25.7 42.27 26.0333 42.3067 26.3266 42.38C26.62 42.4533 26.85 42.56 27.0166 42.7C27.1833 42.8333 27.2666 42.9933 27.2666 43.18C27.2666 43.3067 27.2333 43.42 27.1666 43.52C27.1066 43.62 27.03 43.7033 26.9366 43.77C26.7766 43.6567 26.5633 43.5567 26.2966 43.47C26.0366 43.3833 25.75 43.34 25.4366 43.34C25.0966 43.34 24.8366 43.4033 24.6566 43.53C24.4766 43.6567 24.3866 43.8233 24.3866 44.03C24.3866 44.19 24.4466 44.3233 24.5666 44.43C24.6933 44.53 24.89 44.62 25.1566 44.7L25.7166 44.88C26.3033 45.0533 26.7533 45.29 27.0666 45.59C27.3866 45.89 27.5466 46.2967 27.5466 46.81C27.5466 47.3567 27.3366 47.8033 26.9166 48.15C26.5033 48.49 25.9066 48.66 25.1266 48.66C24.72 48.66 24.3566 48.6133 24.0366 48.52C23.7233 48.4333 23.4766 48.3133 23.2966 48.16C23.1166 48 23.0266 47.8267 23.0266 47.64C23.0266 47.48 23.07 47.3467 23.1566 47.24C23.25 47.1333 23.3566 47.0533 23.4766 47C23.6433 47.1467 23.8633 47.2833 24.1366 47.41C24.4166 47.53 24.7366 47.59 25.0966 47.59ZM30.4175 46.52L29.5375 45.93L31.7975 43.68C32.0575 43.68 32.2642 43.7367 32.4175 43.85C32.5708 43.9633 32.6475 44.1067 32.6475 44.28C32.6475 44.4333 32.5975 44.5667 32.4975 44.68C32.3975 44.7933 32.2442 44.9367 32.0375 45.11L30.4175 46.52ZM29.5675 46.12L30.5475 45.65L32.8675 47.84C32.8475 48.0733 32.7775 48.2567 32.6575 48.39C32.5442 48.5167 32.3808 48.58 32.1675 48.58C32.0142 48.58 31.8742 48.54 31.7475 48.46C31.6208 48.38 31.4842 48.2533 31.3375 48.08L29.5675 46.12ZM28.5875 45.84L29.8575 45.9V48.49C29.8042 48.5033 29.7242 48.52 29.6175 48.54C29.5175 48.56 29.4075 48.57 29.2875 48.57C29.0475 48.57 28.8708 48.5267 28.7575 48.44C28.6442 48.3533 28.5875 48.2 28.5875 47.98V45.84ZM29.8575 46.55L28.5875 46.49V42C28.6408 41.98 28.7208 41.9633 28.8275 41.95C28.9342 41.93 29.0475 41.92 29.1675 41.92C29.4075 41.92 29.5808 41.9633 29.6875 42.05C29.8008 42.13 29.8575 42.2833 29.8575 42.51V46.55ZM33.7421 42.35C33.7421 42.15 33.8088 41.9833 33.9421 41.85C34.0821 41.71 34.2588 41.64 34.4721 41.64C34.6854 41.64 34.8588 41.71 34.9921 41.85C35.1321 41.9833 35.2021 42.15 35.2021 42.35C35.2021 42.55 35.1321 42.72 34.9921 42.86C34.8588 42.9933 34.6854 43.06 34.4721 43.06C34.2588 43.06 34.0821 42.9933 33.9421 42.86C33.8088 42.72 33.7421 42.55 33.7421 42.35ZM33.8421 45.86H35.1021V48.49C35.0488 48.5033 34.9688 48.52 34.8621 48.54C34.7621 48.56 34.6521 48.57 34.5321 48.57C34.2921 48.57 34.1154 48.5267 34.0021 48.44C33.8954 48.3533 33.8421 48.2 33.8421 47.98V45.86ZM35.1021 46.51H33.8421V43.8C33.8954 43.7867 33.9721 43.77 34.0721 43.75C34.1788 43.73 34.2921 43.72 34.4121 43.72C34.6521 43.72 34.8254 43.7633 34.9321 43.85C35.0454 43.93 35.1021 44.0833 35.1021 44.31V46.51ZM38.6593 48.64C38.3993 48.64 38.1593 48.6067 37.9393 48.54C37.726 48.4733 37.5526 48.3967 37.4193 48.31V47.21C37.5393 47.3167 37.686 47.4133 37.8593 47.5C38.0326 47.5867 38.236 47.63 38.4693 47.63C38.8693 47.63 39.1826 47.5067 39.4093 47.26C39.636 47.0067 39.7493 46.6233 39.7493 46.11C39.7493 45.75 39.696 45.4633 39.5893 45.25C39.4826 45.03 39.336 44.87 39.1493 44.77C38.9626 44.67 38.746 44.62 38.4993 44.62C38.3193 44.62 38.1626 44.6433 38.0293 44.69C37.896 44.7367 37.776 44.7867 37.6693 44.84V47.98H36.4093V44.71C36.4093 44.55 36.4393 44.42 36.4993 44.32C36.566 44.22 36.6693 44.1267 36.8093 44.04C37.0026 43.92 37.2426 43.82 37.5293 43.74C37.8226 43.6533 38.146 43.61 38.4993 43.61C38.9926 43.61 39.4293 43.7 39.8093 43.88C40.196 44.0533 40.4993 44.3233 40.7193 44.69C40.9393 45.0567 41.0493 45.53 41.0493 46.11C41.0493 46.6633 40.946 47.13 40.7393 47.51C40.5326 47.8833 40.2493 48.1667 39.8893 48.36C39.5293 48.5467 39.1193 48.64 38.6593 48.64ZM37.1093 50.37C36.8693 50.37 36.6926 50.3267 36.5793 50.24C36.466 50.1533 36.4093 50 36.4093 49.78V47.63L37.6793 47.64V50.29C37.626 50.3033 37.546 50.32 37.4393 50.34C37.3393 50.36 37.2293 50.37 37.1093 50.37Z" fill="white"/>
</svg>
