<svg width="152" height="65" viewBox="0 0 152 65" fill="none" xmlns="http://www.w3.org/2000/svg">
<path d="M133.446 8.06667C133.446 8.06667 96.1128 7.91667 79.5022 8.06667C70.5345 8.07267 18.5502 8.06667 18.5502 8.06667C2.49188 8.06667 0 11.4967 0 33.6017V34.5637C0 60.5557 2.49187 63.9097 21.3191 63.9097L81.8641 64.4207L130.681 63.9097C149.511 63.9097 152 60.5557 152 34.5637V33.6017C151.996 11.4967 149.504 8.06667 133.446 8.06667Z" fill="#D25A15"/>
<path d="M133.446 0.0666667C133.446 0.0666667 96.1128 -0.0833333 79.5022 0.0666667C70.5345 0.0726667 18.5502 0.0666667 18.5502 0.0666667C2.49188 0.0666667 0 3.49666 0 25.6017V26.5637C0 52.5557 2.49187 55.9097 21.3191 55.9097L81.8641 56.4207L130.681 55.9097C149.511 55.9097 152 52.5557 152 26.5637V25.6017C151.996 3.49666 149.504 0.0666667 133.446 0.0666667Z" fill="#F56523"/>
<path d="M45.214 30.698C44.5687 30.478 43.982 30.258 43.454 30.038C42.926 29.8033 42.4713 29.5247 42.09 29.202C41.7087 28.8793 41.408 28.498 41.188 28.058C40.9827 27.6033 40.88 27.0533 40.88 26.408C40.88 25.1613 41.3567 24.164 42.31 23.416C43.278 22.668 44.6273 22.294 46.358 22.294C46.9887 22.294 47.5753 22.338 48.118 22.426C48.6607 22.514 49.1227 22.6533 49.504 22.844C49.9 23.02 50.208 23.2547 50.428 23.548C50.648 23.8267 50.758 24.1567 50.758 24.538C50.758 24.9193 50.67 25.2493 50.494 25.528C50.318 25.792 50.1053 26.0193 49.856 26.21C49.5333 26.0047 49.1007 25.8287 48.558 25.682C48.0153 25.5207 47.4213 25.44 46.776 25.44C46.116 25.44 45.632 25.5353 45.324 25.726C45.016 25.902 44.862 26.1293 44.862 26.408C44.862 26.628 44.9573 26.8113 45.148 26.958C45.3387 27.09 45.6247 27.2147 46.006 27.332L47.172 27.706C48.5507 28.146 49.6067 28.7107 50.34 29.4C51.088 30.0747 51.462 30.9987 51.462 32.172C51.462 33.4187 50.9707 34.4307 49.988 35.208C49.0053 35.9707 47.5607 36.352 45.654 36.352C44.9793 36.352 44.3487 36.2933 43.762 36.176C43.19 36.0733 42.684 35.9193 42.244 35.714C41.8187 35.494 41.4813 35.23 41.232 34.922C40.9973 34.5993 40.88 34.2327 40.88 33.822C40.88 33.3967 41.0047 33.0373 41.254 32.744C41.5033 32.436 41.7747 32.2013 42.068 32.04C42.4787 32.3627 42.9773 32.6413 43.564 32.876C44.1653 33.1107 44.818 33.228 45.522 33.228C46.2407 33.228 46.7467 33.118 47.04 32.898C47.3333 32.678 47.48 32.4213 47.48 32.128C47.48 31.8347 47.3627 31.6147 47.128 31.468C46.8933 31.3067 46.5633 31.1527 46.138 31.006L45.214 30.698ZM53.1967 25.462C53.3434 25.418 53.5707 25.374 53.8787 25.33C54.2014 25.286 54.5314 25.264 54.8687 25.264C55.1914 25.264 55.4774 25.286 55.7267 25.33C55.9907 25.374 56.2107 25.462 56.3867 25.594C56.5627 25.726 56.6947 25.9093 56.7827 26.144C56.8854 26.364 56.9367 26.6573 56.9367 27.024V31.754C56.9367 32.3553 57.0834 32.788 57.3767 33.052C57.6701 33.3013 58.0954 33.426 58.6527 33.426C58.9901 33.426 59.2614 33.3967 59.4667 33.338C59.6867 33.2793 59.8554 33.2207 59.9727 33.162V25.462C60.1194 25.418 60.3467 25.374 60.6547 25.33C60.9774 25.286 61.3074 25.264 61.6447 25.264C61.9674 25.264 62.2534 25.286 62.5027 25.33C62.7667 25.374 62.9867 25.462 63.1627 25.594C63.3387 25.726 63.4707 25.9093 63.5587 26.144C63.6614 26.364 63.7127 26.6573 63.7127 27.024V33.712C63.7127 34.4453 63.4047 34.9953 62.7887 35.362C62.2754 35.6847 61.6594 35.9267 60.9407 36.088C60.2367 36.264 59.4667 36.352 58.6307 36.352C57.8387 36.352 57.1054 36.264 56.4307 36.088C55.7707 35.912 55.1987 35.6407 54.7147 35.274C54.2307 34.9073 53.8567 34.438 53.5927 33.866C53.3287 33.2793 53.1967 32.5753 53.1967 31.754V25.462ZM66.0454 21.678C66.1921 21.634 66.4268 21.59 66.7494 21.546C67.0721 21.4873 67.4021 21.458 67.7394 21.458C68.0621 21.458 68.3481 21.48 68.5974 21.524C68.8614 21.568 69.0814 21.656 69.2574 21.788C69.4334 21.92 69.5654 22.1033 69.6534 22.338C69.7414 22.558 69.7854 22.8513 69.7854 23.218V25.374C70.1521 25.2273 70.4968 25.1247 70.8194 25.066C71.1568 25.0073 71.5234 24.978 71.9194 24.978C72.6234 24.978 73.2908 25.1027 73.9214 25.352C74.5521 25.6013 75.1094 25.968 75.5934 26.452C76.0774 26.9213 76.4588 27.508 76.7374 28.212C77.0161 28.916 77.1554 29.73 77.1554 30.654C77.1554 31.6073 77.0088 32.4433 76.7154 33.162C76.4368 33.866 76.0408 34.4527 75.5274 34.922C75.0141 35.3913 74.3834 35.7507 73.6354 36C72.9021 36.2347 72.0881 36.352 71.1934 36.352C70.2254 36.352 69.4041 36.2347 68.7294 36C68.0548 35.78 67.4828 35.5013 67.0134 35.164C66.3681 34.7093 66.0454 34.1227 66.0454 33.404V21.678ZM71.1934 33.404C71.8681 33.404 72.3888 33.1767 72.7554 32.722C73.1368 32.2527 73.3274 31.5633 73.3274 30.654C73.3274 29.73 73.1368 29.0407 72.7554 28.586C72.3741 28.1313 71.8608 27.904 71.2154 27.904C70.9221 27.904 70.6654 27.9333 70.4454 27.992C70.2401 28.0507 70.0128 28.1387 69.7634 28.256V33.052C69.9248 33.1547 70.1154 33.2427 70.3354 33.316C70.5701 33.3747 70.8561 33.404 71.1934 33.404ZM84.104 24.978C84.7053 24.978 85.292 25.066 85.864 25.242C86.4507 25.4033 86.9567 25.6527 87.382 25.99C87.822 25.6967 88.3133 25.4547 88.856 25.264C89.4133 25.0733 90.0807 24.978 90.858 24.978C91.4153 24.978 91.958 25.0513 92.486 25.198C93.0287 25.3447 93.5053 25.5793 93.916 25.902C94.3413 26.21 94.6787 26.628 94.928 27.156C95.1773 27.6693 95.302 28.3 95.302 29.048V35.978C95.1553 36.022 94.9207 36.066 94.598 36.11C94.29 36.154 93.9673 36.176 93.63 36.176C93.3073 36.176 93.014 36.154 92.75 36.11C92.5007 36.066 92.288 35.978 92.112 35.846C91.936 35.714 91.7967 35.538 91.694 35.318C91.606 35.0833 91.562 34.7827 91.562 34.416V29.158C91.562 28.718 91.4373 28.4027 91.188 28.212C90.9387 28.0067 90.6013 27.904 90.176 27.904C89.9707 27.904 89.7507 27.9553 89.516 28.058C89.2813 28.146 89.1053 28.2413 88.988 28.344C89.0027 28.4027 89.01 28.4613 89.01 28.52C89.01 28.564 89.01 28.608 89.01 28.652V35.978C88.8487 36.022 88.6067 36.066 88.284 36.11C87.976 36.154 87.6607 36.176 87.338 36.176C87.0153 36.176 86.722 36.154 86.458 36.11C86.2087 36.066 85.996 35.978 85.82 35.846C85.644 35.714 85.5047 35.538 85.402 35.318C85.314 35.0833 85.27 34.7827 85.27 34.416V29.158C85.27 28.718 85.1307 28.4027 84.852 28.212C84.588 28.0067 84.2653 27.904 83.884 27.904C83.62 27.904 83.3927 27.948 83.202 28.036C83.0113 28.1093 82.85 28.1827 82.718 28.256V35.978C82.5713 36.022 82.3367 36.066 82.014 36.11C81.706 36.154 81.3833 36.176 81.046 36.176C80.7233 36.176 80.43 36.154 80.166 36.11C79.9167 36.066 79.704 35.978 79.528 35.846C79.352 35.714 79.2127 35.538 79.11 35.318C79.022 35.0833 78.978 34.7827 78.978 34.416V27.772C78.978 27.376 79.0587 27.0607 79.22 26.826C79.396 26.5913 79.6307 26.3713 79.924 26.166C80.4227 25.814 81.0387 25.528 81.772 25.308C82.52 25.088 83.2973 24.978 84.104 24.978ZM97.4955 22.338C97.4955 21.7807 97.6788 21.3113 98.0455 20.93C98.4268 20.5487 98.9255 20.358 99.5415 20.358C100.157 20.358 100.649 20.5487 101.015 20.93C101.397 21.3113 101.587 21.7807 101.587 22.338C101.587 22.8953 101.397 23.3647 101.015 23.746C100.649 24.1273 100.157 24.318 99.5415 24.318C98.9255 24.318 98.4268 24.1273 98.0455 23.746C97.6788 23.3647 97.4955 22.8953 97.4955 22.338ZM101.411 35.978C101.25 36.0073 101.008 36.044 100.685 36.088C100.377 36.1467 100.062 36.176 99.7395 36.176C99.4168 36.176 99.1235 36.154 98.8595 36.11C98.6101 36.066 98.3975 35.978 98.2215 35.846C98.0455 35.714 97.9061 35.538 97.8035 35.318C97.7155 35.0833 97.6715 34.7827 97.6715 34.416V25.462C97.8328 25.4327 98.0675 25.396 98.3755 25.352C98.6981 25.2933 99.0208 25.264 99.3435 25.264C99.6661 25.264 99.9521 25.286 100.201 25.33C100.465 25.374 100.685 25.462 100.861 25.594C101.037 25.726 101.169 25.9093 101.257 26.144C101.36 26.364 101.411 26.6573 101.411 27.024V35.978ZM107.532 32.326C107.532 32.7073 107.65 32.9787 107.884 33.14C108.134 33.3013 108.478 33.382 108.918 33.382C109.138 33.382 109.366 33.3673 109.6 33.338C109.835 33.294 110.04 33.2427 110.216 33.184C110.348 33.3453 110.458 33.5287 110.546 33.734C110.649 33.9247 110.7 34.1593 110.7 34.438C110.7 34.9953 110.488 35.45 110.062 35.802C109.652 36.154 108.918 36.33 107.862 36.33C106.572 36.33 105.574 36.0367 104.87 35.45C104.181 34.8633 103.836 33.91 103.836 32.59V23.174C103.998 23.13 104.225 23.086 104.518 23.042C104.826 22.9833 105.149 22.954 105.486 22.954C106.132 22.954 106.63 23.0713 106.982 23.306C107.349 23.526 107.532 24.0027 107.532 24.736V26.144H110.414C110.502 26.3053 110.583 26.5107 110.656 26.76C110.744 26.9947 110.788 27.2587 110.788 27.552C110.788 28.0653 110.671 28.4393 110.436 28.674C110.216 28.894 109.916 29.004 109.534 29.004H107.532V32.326Z" fill="white"/>
</svg>
